<?xml version="1.0" encoding="utf-8"?>
<!-- Generator: Adobe Illustrator 15.0.0, SVG Export Plug-In . SVG Version: 6.00 Build 0)  -->
<!DOCTYPE svg PUBLIC "-//W3C//DTD SVG 1.1//EN" "http://www.w3.org/Graphics/SVG/1.1/DTD/svg11.dtd">
<svg version="1.1" id="Layer_1" xmlns="http://www.w3.org/2000/svg" xmlns:xlink="http://www.w3.org/1999/xlink" x="0px" y="0px"
	 width="1024px" height="768px" viewBox="0 0 1024 768" enable-background="new 0 0 1024 768" xml:space="preserve">
<g>
	<path fill="#29ABE2" d="M420.875,280.688h179.688c5.2,3.125,5.2,6.25,0,9.375h-98.438c-14.587,32.3-30.212,58.337-46.875,78.125
		l120.313-9.375c-12.5-25-20.838-39.575-25-43.75c0-6.25,2.6-8.325,7.813-6.25c18.75,28.125,31.25,54.175,37.5,78.125
		c-2.088,6.25-5.213,6.763-9.375,1.563c-2.088-8.337-4.688-15.112-7.813-20.313l-134.375,10.938
		c-4.175-1.05-4.688-4.175-1.563-9.375c17.7-20.825,34.375-47.388,50-79.688h-71.875
		C415.663,287.987,415.663,284.862,420.875,280.688z M436.5,218.188h145.313c6.25,3.125,6.25,6.25,0,9.375H436.5
		C431.288,224.438,431.288,221.313,436.5,218.188z"/>
</g>
</svg>
